# xmcd
#
# Track frame offsets: 
#        150
#        12152
#        24644
#        40299
#        56409
#        68936
#        81371
#        96853
#        108712
#        127585
#        139677
#        151494
#
# Disc length: 2203 seconds
#
# Revision: 0
# Processed by: cddbd v1.5.2PL0 Copyright (c) Steve Scherf et al.
# Submitted via: ExactAudioCopy v0.99pb4
#
DISCID=9a08990c
DTITLE=Julie Lee - Kickin' Up Some Country
DYEAR=1999
DGENRE=Classic Country
TTITLE0=Kansas City
TTITLE1=Keys In The Mailbox
TTITLE2=Afraid
TTITLE3=I Fall To Pieces
TTITLE4=Living On Love
TTITLE5=Charlie's Shoes
TTITLE6=I Feel Fine
TTITLE7=Memories To Burn
TTITLE8=Sweet Nearness Of You
TTITLE9=My Heart Skips A Beat
TTITLE10=Swingin' Doors
TTITLE11=Wild At Heart
EXTD=
EXTT0=
EXTT1=
EXTT2=
EXTT3=
EXTT4=
EXTT5=
EXTT6=
EXTT7=
EXTT8=
EXTT9=
EXTT10=
EXTT11=
PLAYORDER=
